<?xml version="1.0" encoding="UTF-8"?>
<svg width="35px" height="35px" viewBox="0 0 35 35" version="1.1" xmlns="http://www.w3.org/2000/svg" xmlns:xlink="http://www.w3.org/1999/xlink">
    <!-- Generator: Sketch 52.6 (67491) - http://www.bohemiancoding.com/sketch -->
    <title>github-logo (1)</title>
    <desc>Created with Sketch.</desc>
    <g id="Page-1" stroke="none" stroke-width="1" fill="none" fill-rule="evenodd">
        <g id="Desktop" transform="translate(-873.000000, -3969.000000)" fill="#FFFFFF">
            <g id="github-logo-(1)" transform="translate(873.000000, 3969.000000)">
                <path d="M32.6524926,8.93434982 C31.087594,6.18584773 28.964909,4.00985479 26.283879,2.40588015 C23.6024499,0.8018237 20.6751287,0 17.4998404,0 C14.3249511,0 11.3966722,0.802069131 8.71580176,2.40588015 C6.0345323,4.00977298 3.91192714,6.18584773 2.34702859,8.93434982 C0.782369466,11.6827701 0,14.6840663 0,17.9381567 C0,21.8470574 1.11254008,25.3620411 3.33817889,28.4840077 C5.56357828,31.6062197 8.43846484,33.7666686 11.9625991,34.9656 C12.3728184,35.0436471 12.6764923,34.9887523 12.8739402,34.8023064 C13.071468,34.6156151 13.1701121,34.381801 13.1701121,34.1018458 C13.1701121,34.0551321 13.1662015,33.6348721 13.1586196,32.8405749 C13.1507983,32.0462778 13.1471271,31.3533437 13.1471271,30.7621 L12.6230202,30.8550366 C12.2888591,30.9177852 11.867307,30.9443736 11.3583638,30.936847 C10.84966,30.9295659 10.3215626,30.8749165 9.77478987,30.773308 C9.2277777,30.6725994 8.71899413,30.4390307 8.24804011,30.0730928 C7.77732553,29.7071549 7.44316446,29.2281551 7.24563672,28.6368295 L7.01778149,28.0993352 C6.8659046,27.7414965 6.62679628,27.3439798 6.30013727,26.9082576 C5.97347827,26.4721264 5.64314804,26.1764636 5.30898697,26.0207784 L5.1494484,25.9037078 C5.04314257,25.8259061 4.94449841,25.7320696 4.85327651,25.6231799 C4.76213442,25.5142903 4.69389756,25.4053188 4.64832652,25.2961838 C4.60267566,25.1869669 4.64050521,25.0973845 4.76221423,25.0271094 C4.88392324,24.9568342 5.10387736,24.9227193 5.4230343,24.9227193 L5.87858514,24.9925036 C6.18241872,25.0549249 6.55824018,25.2413708 7.00652839,25.5529866 C7.45457717,25.864357 7.82289657,26.2691548 8.1115664,26.7672165 C8.46113065,27.4058285 8.88228373,27.8924367 9.37622279,28.2272867 C9.86976281,28.5621366 10.3673731,28.7292753 10.8685748,28.7292753 C11.3697765,28.7292753 11.8026615,28.6903335 12.1673895,28.6128591 C12.5317185,28.5349756 12.8735412,28.4179049 13.1926981,28.2623015 C13.3294113,27.2185645 13.7016413,26.4167408 14.3090691,25.8562577 C13.443299,25.7629939 12.66492,25.6225254 11.973533,25.4357523 C11.282545,25.2487337 10.5684922,24.9452172 9.83185344,24.5243845 C9.0948156,24.1041245 8.48339741,23.5822559 7.99743927,22.9596788 C7.51140131,22.3367745 7.11251499,21.5189977 6.80133897,20.5070849 C6.49000333,19.4947631 6.3342956,18.3270015 6.3342956,17.0034729 C6.3342956,15.1189704 6.9344607,13.515323 8.13455145,12.1916308 C7.57237553,10.7748383 7.62544864,9.18657127 8.2939304,7.42699326 C8.73447711,7.28668843 9.38779512,7.39197841 10.2535652,7.74220872 C11.1194949,8.09260265 11.7534991,8.39276499 12.1562162,8.64163222 C12.5589334,8.89041764 12.8816019,9.10124303 13.1247007,9.27222676 C14.5377224,8.86751073 15.995916,8.6651118 17.4996808,8.6651118 C19.0034455,8.6651118 20.4619584,8.86751073 21.8750599,9.27222676 L22.7409097,8.71190735 C23.3330141,8.33803384 24.0322224,7.9954119 24.8368586,7.68395971 C25.6419737,7.37267115 26.2576218,7.28693386 26.6831644,7.42723869 C27.3664906,9.18689851 27.427385,10.7750837 26.8650495,12.1918762 C28.0650604,13.5155684 28.665465,15.1196249 28.665465,17.0037183 C28.665465,18.3272469 28.5091986,19.49869 28.1983418,20.5187838 C27.887086,21.5390413 27.4847678,22.3559999 26.9912278,22.9713777 C26.4971291,23.5866737 25.8818003,24.1044517 25.1451615,24.5246299 C24.4083631,24.9451353 23.6940709,25.2486519 23.0030829,25.4356705 C22.3117757,25.6226891 21.5333967,25.7632393 20.6676267,25.8566668 C21.4572588,26.5571274 21.8521546,27.6627949 21.8521546,29.1731785 L21.8521546,34.1011913 C21.8521546,34.3811465 21.9471276,34.6148788 22.137233,34.801652 C22.3270991,34.9880979 22.6269422,35.0429926 23.0371614,34.9648637 C26.5617746,33.766096 29.4366611,31.6055652 31.6619807,28.4833532 C33.8870609,25.3613866 35,21.8464029 35,17.9375022 C34.9992019,14.6838209 34.2164334,11.6827701 32.6524926,8.93434982 Z" id="Path"></path>
            </g>
        </g>
    </g>
</svg>