<?xml version="1.0" encoding="UTF-8"?>
<svg width="70px" height="70px" viewBox="0 0 70 70" version="1.1" xmlns="http://www.w3.org/2000/svg" xmlns:xlink="http://www.w3.org/1999/xlink">
    <!-- Generator: Sketch 52.6 (67491) - http://www.bohemiancoding.com/sketch -->
    <title>Group</title>
    <desc>Created with Sketch.</desc>
    <g id="Page-1" stroke="none" stroke-width="1" fill="none" fill-rule="evenodd">
        <g id="Desktop" transform="translate(-85.000000, -23.000000)">
            <g id="Group" transform="translate(86.000000, 24.000000)">
                <circle id="Oval" stroke="#EE6C4D" stroke-width="2" stroke-linecap="square" fill-rule="nonzero" cx="34" cy="34" r="34"></circle>
                <path d="M18,23 L26.0286772,23 C27.1480167,23 28.2062855,23.0988691 29.2035153,23.2966102 C30.200745,23.4943513 31.0707641,23.8354496 31.8135985,24.3199153 C32.5564329,24.804381 33.1466213,25.4569168 33.5841813,26.2775424 C34.0217413,27.0981679 34.240518,28.1313497 34.240518,29.3771186 C34.240518,30.6031135 34.0370048,31.6313518 33.6299722,32.4618644 C33.2229397,33.292377 32.6632783,33.9547998 31.9509713,34.4491525 C31.2386643,34.9435053 30.3940844,35.2944905 29.4172063,35.5021186 C28.4403281,35.7097468 27.3820594,35.8135593 26.2423682,35.8135593 L22.7622572,35.8135593 L22.7622572,44 L18,44 L18,23 Z M22.7622572,31.8983051 L25.9370953,31.8983051 C26.3644795,31.8983051 26.7765938,31.8587575 27.1734505,31.779661 C27.5703073,31.7005646 27.9264554,31.5670913 28.2419056,31.3792373 C28.5573559,31.1913832 28.8117474,30.9343237 29.0050879,30.6080508 C29.1984283,30.281778 29.2950971,29.8714714 29.2950971,29.3771186 C29.2950971,28.8432177 29.1679014,28.4131372 28.913506,28.0868644 C28.6591107,27.7605916 28.3334895,27.5084755 27.9366327,27.3305085 C27.539776,27.1525415 27.0971347,27.0388421 26.6086957,26.9894068 C26.1202566,26.9399715 25.6521762,26.9152542 25.2044403,26.9152542 L22.7622572,26.9152542 L22.7622572,31.8983051 Z M37.4153562,23 L42.1776133,23 L42.1776133,39.7288136 L51,39.7288136 L51,44 L37.4153562,44 L37.4153562,23 Z" id="PL" fill="#EE6C4D"></path>
            </g>
        </g>
    </g>
</svg>