<?xml version="1.0" encoding="UTF-8"?>
<svg width="61px" height="61px" viewBox="0 0 61 61" version="1.1" xmlns="http://www.w3.org/2000/svg" xmlns:xlink="http://www.w3.org/1999/xlink">
    <!-- Generator: Sketch 52.6 (67491) - http://www.bohemiancoding.com/sketch -->
    <title>Group</title>
    <desc>Created with Sketch.</desc>
    <g id="Page-1" stroke="none" stroke-width="1" fill="none" fill-rule="evenodd">
        <g id="Desktop" transform="translate(-90.000000, -27.000000)">
            <g id="Group" transform="translate(90.000000, 27.000000)">
                <circle id="Oval" fill="#FFD000" fill-rule="nonzero" cx="30.5" cy="30.5" r="30.5"></circle>
                <path d="M23,18 L31.942,18 C33.1886729,18 34.3673278,18.1133322 35.478,18.34 C36.5886722,18.5666678 37.5576625,18.9576639 38.385,19.513 C39.2123375,20.0683361 39.8696642,20.8163286 40.357,21.757 C40.8443358,22.6976714 41.088,23.8819929 41.088,25.31 C41.088,26.7153404 40.8613356,27.8939952 40.408,28.846 C39.9546644,29.7980048 39.3313373,30.5573305 38.538,31.124 C37.7446627,31.6906695 36.8040054,32.0929988 35.716,32.331 C34.6279946,32.5690012 33.4493397,32.688 32.18,32.688 L28.304,32.688 L28.304,42.072 L23,42.072 L23,18 Z M28.304,28.2 L31.84,28.2 C32.3160024,28.2 32.7749978,28.1546671 33.217,28.064 C33.6590022,27.9733329 34.0556649,27.8203344 34.407,27.605 C34.7583351,27.3896656 35.0416656,27.0950019 35.257,26.721 C35.4723344,26.3469981 35.58,25.8766695 35.58,25.31 C35.58,24.6979969 35.4383347,24.2050019 35.155,23.831 C34.8716652,23.4569981 34.5090022,23.168001 34.067,22.964 C33.6249978,22.759999 33.1320027,22.629667 32.588,22.573 C32.0439973,22.5163331 31.5226692,22.488 31.024,22.488 L28.304,22.488 L28.304,28.2 Z" id="P" fill="#FFFFFF"></path>
            </g>
        </g>
    </g>
</svg>